<?xml version="1.0" encoding="UTF-8"?>
<svg width="151px" height="58px" viewBox="0 0 151 58" version="1.1" xmlns="http://www.w3.org/2000/svg" xmlns:xlink="http://www.w3.org/1999/xlink">
    <!-- Generator: Sketch 58 (84663) - https://sketch.com -->
    <title>FHWN horizontal</title>
    <desc>Created with Sketch.</desc>
    <g id="Page-1" stroke="none" stroke-width="1" fill="none" fill-rule="evenodd">
        <g id="FHWN-horizontal" fill-rule="nonzero">
            <g id="Group">
                <path d="M22.1,46.9 C18.8,45.2 15.2,43.9 12.1,42.3 C8.4,40.4 3.2,37.5 0.9,33.5 C0.8,33.3 0.4,33.4 0.5,33.7 C3.7,47.5 20.5,56.3 22,57.1 C22.1,57.1 22.2,57.1 22.2,57.1 C22.8,56.8 25.5,55.4 28.8,53 C28.9,52.9 28.9,52.8 28.9,52.7 C27.2,50.1 24.8,48.3 22.1,46.9" id="Path" fill="#163072"></path>
                <path d="M33.1,38.6 C29.8,35.7 26,34 22.1,32.4 C19.7,31.4 17.3,30.5 14.9,29.3 C9,26.5 4.2,23.5 0.4,18.5 C0.3,18.3 -7.10542736e-15,18.4 -7.10542736e-15,18.6 L-7.10542736e-15,19 C0.5,30.2 7,34.4 17.3,38.5 C19,39.2 20.6,39.9 22.1,40.7 C28.7,44.2 32.3,48.2 33.2,49.1 C33.3,49.2 33.5,49.2 33.6,49.1 C36.4,46.1 36,43.1 35.4,41.4 C34.8,40.3 34.1,39.4 33.1,38.6" id="Path" fill="#61A4D7"></path>
                <path d="M45.8,13 L45.8,11.6 C45.8,10.4 44.8,9.4 43.6,9.4 L43.3,9.4 L34.8,9.4 C34.6,9.4 34.4,9.2 34.4,9 L34.4,7.2 L34.4,5.4 C34.4,5.2 34.2,5 34,5 L32.9,5 L28.3,5 C28.1,5 27.9,4.8 27.9,4.6 L27.9,1 C27.9,0.8 27.7,0.6 27.5,0.6 L22.7,0.6 L21.8,0.6 C21.4,0.6 21.8,0.6 20.7,1.2 C20.5,1.3 20.3,1.4 20.1,1.5 C18.6,2.1 16.9,2.2 15.2,1.9 C14.4,1.8 13.5,1.5 12.7,1.3 L11,0.6 C10.6,0.5 10.4,0.9 10.5,1.2 L11.5,3.2 C12.2,4.6 13.1,5.8 14.1,6.8 C12.7,6.8 11.4,6.6 10.4,6.2 C10.3,6.2 10.2,6.1 10,6.1 C7.7,5.3 5.6,3.9 3.9,2.1 L2.7,0.7 C2.4,0.5 2,0.7 2,1 L2,3.2 C2,13.3 11.7,16.9 11.7,16.9 C11.7,16.9 9.8,17.4 8.6,17.2 C8.6,17.2 8.6,17.2 8.6,17.2 C8.4,17.2 8.3,17.4 8.4,17.5 C10.2,19.5 13.9,21.6 13.9,21.6 C18.5,23.6 22.8,23.8 22.8,23.8 C22.8,23.8 21.2,24.6 20.6,24.6 C20.5,24.6 20.5,24.8 20.6,24.8 C24.5,26 29.1,27.9 31.8,29 C34,29.9 36.2,31.1 38.1,32.5 C41.1,34.7 41.7,37.5 41.9,38.8 C41.9,39 42.2,39.1 42.3,38.9 C45.2,34.2 45.3,31.1 45.3,31.1 C45.6,27.9 42.8,26.8 42.8,26.8 C45.4,26.9 45.9,25 46,23.7 C45.2,24.3 44.1,24.7 42.9,24.7 C40.5,24.7 38.5,23 38.5,21 C38.5,19 40.5,17.3 42.9,17.3 C44.1,17.3 45.2,17.7 46,18.4 L46,16.9 L46,16.9 L46,16.6 C46,15.4 44.6,15.2 44.6,15.2 C44.9,15.1 45.1,14.9 45.3,14.7 C45.5,14.1 45.8,13.6 45.8,13" id="Path" fill="#163072"></path>
            </g>
            <g id="Group" transform="translate(55.000000, 28.000000)" fill="#163072">
                <polygon id="Path" points="2.5 2.6 2.5 3.7 5.4 3.7 5.4 5.3 2.5 5.3 2.5 7.4 0.3 7.4 0.3 0.9 5.5 0.9 5.5 2.5"></polygon>
                <path d="M8,6.6 L7.7,7.5 L5.5,7.5 L8.3,1 L10.5,1 L13.2,7.5 L10.9,7.5 L10.6,6.6 L8,6.6 Z M9.2,3.1 L8.5,5 L9.9,5 L9.2,3.1 Z" id="Shape"></path>
                <path d="M19.4,2.1 L18.2,3.6 C17.8,3.1 17.2,2.7 16.7,2.7 C15.9,2.7 15.4,3.3 15.4,4.2 C15.4,5.1 16,5.7 16.7,5.7 C17.2,5.7 17.8,5.4 18.2,5 L19.4,6.3 C18.7,7.1 17.6,7.6 16.6,7.6 C14.6,7.6 13.1,6.2 13.1,4.2 C13.1,2.3 14.6,0.9 16.6,0.9 C17.6,0.9 18.7,1.4 19.4,2.1 Z" id="Path"></path>
                <polygon id="Path" points="24.2 7.5 24.2 5.1 22.2 5.1 22.2 7.5 20 7.5 20 1 22.2 1 22.2 3.5 24.2 3.5 24.2 1 26.4 1 26.4 7.5"></polygon>
                <polygon id="Path" points="31.6 7.5 31.6 5.1 29.6 5.1 29.6 7.5 27.4 7.5 27.4 1 29.6 1 29.6 3.5 31.6 3.5 31.6 1 33.8 1 33.8 7.5"></polygon>
                <path d="M41.7,4.2 C41.7,6.1 40.2,7.6 38.1,7.6 C36,7.6 34.5,6.2 34.5,4.2 C34.5,2.3 36,0.9 38.1,0.9 C40.2,0.9 41.7,2.3 41.7,4.2 Z M36.8,4.2 C36.8,5.1 37.5,5.8 38.2,5.8 C38.9,5.8 39.5,5.1 39.5,4.2 C39.5,3.3 38.9,2.7 38.2,2.7 C37.4,2.7 36.8,3.4 36.8,4.2 Z" id="Shape"></path>
                <path d="M48.5,2.1 L47.3,3.6 C46.9,3.1 46.3,2.7 45.8,2.7 C45,2.7 44.5,3.3 44.5,4.2 C44.5,5.1 45.1,5.7 45.8,5.7 C46.3,5.7 46.9,5.4 47.3,5 L48.5,6.3 C47.8,7.1 46.7,7.6 45.7,7.6 C43.7,7.6 42.3,6.2 42.3,4.2 C42.3,2.3 43.8,0.9 45.8,0.9 C46.7,0.9 47.8,1.4 48.5,2.1 Z" id="Path"></path>
                <polygon id="Path" points="53.3 7.5 53.3 5.1 51.3 5.1 51.3 7.5 49.1 7.5 49.1 1 51.3 1 51.3 3.5 53.3 3.5 53.3 1 55.5 1 55.5 7.5"></polygon>
                <path d="M62.2,1.7 L61.4,3.3 C60.7,2.9 59.7,2.5 59.2,2.5 C59,2.5 58.8,2.6 58.8,2.8 C58.8,3.6 62.2,3.1 62.2,5.5 C62.2,7 60.9,7.6 59.5,7.6 C58.4,7.6 57.1,7.2 56.2,6.6 L57,5 C57.7,5.6 58.8,6 59.5,6 C59.8,6 60,5.9 60,5.7 C60,4.9 56.6,5.4 56.6,3.1 C56.6,1.8 57.7,1 59.4,1 C60.4,0.9 61.5,1.2 62.2,1.7 Z" id="Path"></path>
                <path d="M68.8,2.1 L67.6,3.6 C67.2,3.1 66.6,2.7 66.1,2.7 C65.3,2.7 64.8,3.3 64.8,4.2 C64.8,5.1 65.4,5.7 66.1,5.7 C66.6,5.7 67.2,5.4 67.6,5 L68.8,6.3 C68.1,7.1 67,7.6 66,7.6 C64,7.6 62.6,6.2 62.6,4.2 C62.6,2.3 64.1,0.9 66.1,0.9 C67.1,0.9 68.2,1.4 68.8,2.1 Z" id="Path"></path>
                <polygon id="Path" points="73.6 7.5 73.6 5.1 71.6 5.1 71.6 7.5 69.4 7.5 69.4 1 71.6 1 71.6 3.5 73.6 3.5 73.6 1 75.8 1 75.8 7.5"></polygon>
                <path d="M83.1,4.7 C83.1,6.4 81.9,7.6 80,7.6 C78.1,7.6 76.8,6.5 76.8,4.7 L76.8,0.9 L79,0.9 L79,4.7 C79,5.3 79.5,5.8 80,5.8 C80.5,5.8 80.9,5.4 80.9,4.7 L80.9,0.9 L83.1,0.9 L83.1,4.7 L83.1,4.7 Z" id="Path"></path>
                <polygon id="Path" points="89 5.7 89 7.5 84.1 7.5 84.1 1 86.3 1 86.3 5.7"></polygon>
                <polygon id="Path" points="91.8 2.6 91.8 3.4 94.8 3.4 94.8 5 91.8 5 91.8 5.8 95.2 5.8 95.2 7.4 89.7 7.4 89.7 0.9 95.2 0.9 95.2 2.5"></polygon>
            </g>
            <g id="Group" transform="translate(54.000000, 40.000000)" fill="#61A4D7">
                <polygon id="Path" points="7 6.7 6.1 2.8 5.2 6.7 3 6.7 0.9 0.2 3.2 0.2 4.2 4.5 5.2 0.2 7.3 0.2 8.3 4.5 9.3 0.2 11.5 0.2 9.4 6.7"></polygon>
                <polygon id="Path" points="11.8 6.7 11.8 0.2 14 0.2 14 6.7"></polygon>
                <polygon id="Path" points="17.2 1.8 17.2 2.6 20.2 2.6 20.2 4.2 17.2 4.2 17.2 5 20.6 5 20.6 6.6 15 6.6 15 0.1 20.5 0.1 20.5 1.7"></polygon>
                <polygon id="Path" points="26.1 6.7 23.5 3.4 23.5 6.7 21.5 6.7 21.5 0.2 23.3 0.2 25.9 3.5 25.9 0.2 27.9 0.2 27.9 6.7"></polygon>
                <polygon id="Path" points="31 1.8 31 2.6 34 2.6 34 4.2 31 4.2 31 5 34.4 5 34.4 6.6 28.8 6.6 28.8 0.1 34.3 0.1 34.3 1.7"></polygon>
                <path d="M38.4,5 L37.6,5 L37.6,6.7 L35.4,6.7 L35.4,0.2 L38.6,0.2 C40.4,0.2 41.4,1 41.4,2.5 C41.4,3.4 41,4.2 40.4,4.6 L41.7,6.7 L39.3,6.7 L38.4,5 Z M38.5,3.3 C39,3.3 39.2,3 39.2,2.5 C39.2,2 38.9,1.7 38.5,1.7 L37.5,1.7 L37.5,3.3 L38.5,3.3 L38.5,3.3 Z" id="Shape"></path>
                <polygon id="Path" points="48.7 6.7 46.1 3.4 46.1 6.7 44.1 6.7 44.1 0.2 45.9 0.2 48.5 3.5 48.5 0.2 50.5 0.2 50.5 6.7"></polygon>
                <polygon id="Path" points="53.7 1.8 53.7 2.6 56.7 2.6 56.7 4.2 53.7 4.2 53.7 5 57.1 5 57.1 6.6 51.5 6.6 51.5 0.1 57 0.1 57 1.7"></polygon>
                <path d="M64.2,3.9 C64.2,5.6 63,6.8 61.1,6.8 C59.2,6.8 57.9,5.7 57.9,3.9 L57.9,0.1 L60.1,0.1 L60.1,3.9 C60.1,4.5 60.6,5 61.1,5 C61.6,5 62,4.6 62,3.9 L62,0.1 L64.2,0.1 L64.2,3.9 L64.2,3.9 Z" id="Path"></path>
                <path d="M70.8,0.8 L70,2.4 C69.3,2 68.3,1.6 67.8,1.6 C67.6,1.6 67.4,1.7 67.4,1.9 C67.4,2.7 70.8,2.2 70.8,4.6 C70.8,6.1 69.5,6.7 68.1,6.7 C67,6.7 65.7,6.3 64.8,5.7 L65.6,4.1 C66.3,4.7 67.4,5.1 68.1,5.1 C68.4,5.1 68.6,5 68.6,4.8 C68.6,4 65.2,4.5 65.2,2.2 C65.2,0.9 66.3,0.1 68,0.1 C69,0.1 70.1,0.4 70.8,0.8 Z" id="Path"></path>
                <polygon id="Path" points="75 1.8 75 6.6 72.8 6.6 72.8 1.8 70.9 1.8 70.9 0.1 76.8 0.1 76.8 1.8"></polygon>
                <path d="M78.7,5.7 L78.4,6.6 L76.2,6.6 L79,0.1 L81.2,0.1 L83.9,6.6 L81.6,6.6 L81.3,5.7 L78.7,5.7 L78.7,5.7 Z M80,2.3 L79.3,4.2 L80.7,4.2 L80,2.3 Z" id="Shape"></path>
                <path d="M87.2,0.1 C89.3,0.1 90.7,1.4 90.7,3.4 C90.7,5.4 89.3,6.7 87.1,6.7 L84.3,6.7 L84.3,0.2 L87.2,0.2 L87.2,0.1 Z M86.4,5 L87.2,5 C88,5 88.5,4.4 88.5,3.4 C88.5,2.4 88,1.8 87.1,1.8 L86.4,1.8 L86.4,5 L86.4,5 Z" id="Shape"></path>
                <polygon id="Path" points="94.7 1.8 94.7 6.6 92.5 6.6 92.5 1.8 90.7 1.8 90.7 0.1 96.6 0.1 96.6 1.8"></polygon>
            </g>
            <g id="Group" transform="translate(54.000000, 51.000000)" fill="#163072">
                <path d="M1.6,3.8 L1.2,4.7 L0.8,4.7 L2.4,1.1 L2.8,1.1 L4.4,4.7 L4,4.7 L3.6,3.8 L1.6,3.8 Z M2.6,1.6 L1.8,3.4 L3.4,3.4 L2.6,1.6 Z" id="Shape"></path>
                <path d="M7.1,4.7 L6.7,4.7 L6.7,4.1 C6.5,4.5 6.2,4.7 5.7,4.7 C5.1,4.7 4.7,4.3 4.7,3.7 L4.7,2.1 L5.1,2.1 L5.1,3.6 C5.1,4.1 5.4,4.4 5.8,4.4 C6.4,4.4 6.7,4 6.7,3.4 L6.7,2.1 L7.1,2.1 L7.1,4.7 L7.1,4.7 Z" id="Path"></path>
                <path d="M9.6,2.2 L9.4,2.5 C9.2,2.4 8.9,2.3 8.7,2.3 C8.4,2.3 8.2,2.4 8.2,2.7 C8.2,3.3 9.7,3 9.7,3.9 C9.7,4.4 9.2,4.7 8.7,4.7 C8.3,4.7 7.9,4.6 7.7,4.3 L7.9,4 C8.1,4.2 8.5,4.3 8.8,4.3 C9.1,4.3 9.4,4.2 9.4,3.9 C9.4,3.3 7.9,3.6 7.9,2.6 C7.9,2.1 8.3,1.9 8.8,1.9 C9.1,2 9.4,2.1 9.6,2.2 Z" id="Path"></path>
                <path d="M11.8,4.5 C11.6,4.6 11.4,4.7 11.2,4.7 C10.8,4.7 10.5,4.5 10.5,3.9 L10.5,2.4 L10.1,2.4 L10.1,2.1 L10.5,2.1 L10.5,1.4 L10.9,1.4 L10.9,2.1 L11.7,2.1 L11.7,2.4 L10.9,2.4 L10.9,3.9 C10.9,4.2 11,4.3 11.3,4.3 C11.4,4.3 11.6,4.3 11.7,4.2 L11.8,4.5 Z" id="Path"></path>
                <path d="M12.7,2.6 C12.9,2.2 13.2,2 13.7,2 L13.7,2.4 C13.1,2.4 12.8,2.7 12.7,3.3 L12.7,4.7 L12.3,4.7 L12.3,2 L12.7,2 L12.7,2.6 Z" id="Path"></path>
                <path d="M14.7,1.2 C14.7,1.4 14.6,1.5 14.4,1.5 C14.2,1.5 14.1,1.4 14.1,1.2 C14.1,1 14.2,0.9 14.4,0.9 C14.6,0.9 14.7,1.1 14.7,1.2 Z M14.2,4.7 L14.2,2 L14.6,2 L14.6,4.7 L14.2,4.7 Z" id="Shape"></path>
                <path d="M17.3,4.3 C17.1,4.6 16.7,4.7 16.3,4.7 C15.7,4.7 15.4,4.3 15.4,3.9 C15.4,3.4 15.8,3.1 16.4,3.1 L17.3,3.1 L17.3,2.9 C17.3,2.5 17.1,2.3 16.6,2.3 C16.3,2.3 16,2.4 15.8,2.6 L15.6,2.3 C15.9,2.1 16.2,1.9 16.7,1.9 C17.4,1.9 17.7,2.3 17.7,2.8 L17.7,4.6 L17.3,4.6 L17.3,4.3 L17.3,4.3 Z M17.2,3.8 L17.2,3.5 L16.4,3.5 C16,3.5 15.7,3.6 15.7,3.9 C15.7,4.2 15.9,4.4 16.3,4.4 C16.8,4.4 17.1,4.1 17.2,3.8 Z" id="Shape"></path>
                <path d="M21,3 L21,4.6 L20.6,4.6 L20.6,3.1 C20.6,2.6 20.3,2.3 19.8,2.3 C19.3,2.3 18.9,2.6 18.9,3.2 L18.9,4.6 L18.5,4.6 L18.5,1.9 L18.9,1.9 L18.9,2.5 C19.1,2.1 19.4,1.9 19.9,1.9 C20.6,2 21,2.4 21,3 Z" id="Path"></path>
                <polygon id="Path" points="25.7 4.7 23.6 1.8 23.6 4.7 23.2 4.7 23.2 1.1 23.6 1.1 25.7 4 25.7 1.1 26.1 1.1 26.1 4.7"></polygon>
                <path d="M29.5,3.5 L27.3,3.5 C27.4,4 27.8,4.4 28.3,4.4 C28.6,4.4 28.9,4.3 29.1,4.1 L29.3,4.3 C29,4.6 28.7,4.7 28.2,4.7 C27.4,4.7 26.9,4.1 26.9,3.3 C26.9,2.5 27.4,1.9 28.2,1.9 C29.1,2 29.5,2.6 29.5,3.5 Z M29.1,3.2 C29.1,2.7 28.7,2.4 28.2,2.4 C27.7,2.4 27.3,2.7 27.3,3.2 L29.1,3.2 Z" id="Shape"></path>
                <path d="M31.5,4.5 C31.3,4.6 31.1,4.7 30.9,4.7 C30.5,4.7 30.2,4.5 30.2,3.9 L30.2,2.4 L29.8,2.4 L29.8,2.1 L30.2,2.1 L30.2,1.4 L30.6,1.4 L30.6,2.1 L31.4,2.1 L31.4,2.4 L30.7,2.4 L30.7,3.9 C30.7,4.2 30.8,4.3 31.1,4.3 C31.2,4.3 31.4,4.3 31.5,4.2 L31.5,4.5 Z" id="Path"></path>
                <polygon id="Path" points="34.7 4.7 33.9 2.5 33.1 4.7 32.7 4.7 31.7 2 32.1 2 32.9 4.3 33.7 2 34.1 2 34.9 4.3 35.7 2 36.1 2 35.1 4.7"></polygon>
                <path d="M38.9,3.3 C38.9,4.1 38.3,4.7 37.5,4.7 C36.7,4.7 36.1,4.1 36.1,3.3 C36.1,2.5 36.7,2 37.5,2 C38.3,2 38.9,2.5 38.9,3.3 Z M36.6,3.3 C36.6,3.9 37,4.3 37.6,4.3 C38.2,4.3 38.6,3.9 38.6,3.3 C38.6,2.7 38.2,2.3 37.6,2.3 C37,2.4 36.6,2.8 36.6,3.3 Z" id="Shape"></path>
                <path d="M40,2.6 C40.2,2.2 40.5,2 41,2 L41,2.4 C40.4,2.4 40.1,2.7 40,3.3 L40,4.7 L39.6,4.7 L39.6,2 L40,2 L40,2.6 Z" id="Path"></path>
                <polygon id="Path" points="41.9 3.9 41.9 4.7 41.5 4.7 41.5 0.9 41.9 0.9 41.9 3.4 43.3 2 43.8 2 42.8 3 43.9 4.6 43.4 4.6 42.5 3.2"></polygon>
                <path d="M46.2,1.7 L46.2,2 L47,2 L47,2.3 L46.2,2.3 L46.2,4.6 L45.8,4.6 L45.8,2.3 L45.5,2.3 L45.5,2 L45.8,2 L45.8,1.7 C45.8,1.1 46.2,0.8 46.7,0.8 C46.9,0.8 47.1,0.9 47.3,1 L47.1,1.3 C47,1.2 46.8,1.2 46.7,1.2 C46.4,1.3 46.2,1.4 46.2,1.7 Z" id="Path"></path>
                <path d="M49.7,3.3 C49.7,4.1 49.1,4.7 48.3,4.7 C47.5,4.7 46.9,4.1 46.9,3.3 C46.9,2.5 47.5,2 48.3,2 C49.2,2 49.7,2.5 49.7,3.3 Z M47.4,3.3 C47.4,3.9 47.8,4.3 48.4,4.3 C49,4.3 49.4,3.9 49.4,3.3 C49.4,2.7 49,2.3 48.4,2.3 C47.8,2.4 47.4,2.8 47.4,3.3 Z" id="Shape"></path>
                <path d="M50.8,2.6 C51,2.2 51.3,2 51.8,2 L51.8,2.4 C51.2,2.4 50.9,2.7 50.8,3.3 L50.8,4.7 L50.4,4.7 L50.4,2 L50.8,2 L50.8,2.6 Z" id="Path"></path>
                <polygon id="Path" points="56.2 4.7 56.2 3.1 54.1 3.1 54.1 4.7 53.7 4.7 53.7 1.1 54.1 1.1 54.1 2.7 56.2 2.7 56.2 1.1 56.6 1.1 56.6 4.7"></polygon>
                <path d="M58.1,1.2 C58.1,1.4 58,1.5 57.8,1.5 C57.7,1.5 57.5,1.4 57.5,1.2 C57.5,1 57.6,0.9 57.8,0.9 C58,1 58.1,1.1 58.1,1.2 Z M57.6,4.7 L57.6,2 L58,2 L58,4.7 L57.6,4.7 Z" id="Shape"></path>
                <path d="M61.3,4.4 C61.3,5.2 60.8,5.7 60,5.7 C59.6,5.7 59.2,5.6 58.9,5.3 L59.1,5 C59.4,5.2 59.6,5.3 60,5.3 C60.6,5.3 61,4.9 61,4.4 L61,4 C60.8,4.4 60.5,4.6 60,4.6 C59.3,4.6 58.8,4.1 58.8,3.3 C58.8,2.6 59.3,2 60,2 C60.5,2 60.8,2.2 61,2.6 L61,2.1 L61.4,2.1 L61.3,4.4 L61.3,4.4 Z M60.9,3.3 C60.9,2.7 60.5,2.4 60,2.4 C59.5,2.4 59.1,2.8 59.1,3.3 C59.1,3.8 59.5,4.2 60,4.2 C60.5,4.2 60.9,3.8 60.9,3.3 Z" id="Shape"></path>
                <path d="M64.7,3 L64.7,4.6 L64.3,4.6 L64.3,3.1 C64.3,2.6 64,2.3 63.5,2.3 C62.9,2.3 62.6,2.7 62.6,3.3 L62.6,4.6 L62.2,4.6 L62.2,0.8 L62.6,0.8 L62.6,2.5 C62.8,2.1 63.1,1.9 63.6,1.9 C64.3,2 64.7,2.4 64.7,3 Z" id="Path"></path>
                <path d="M67.9,3.5 L65.7,3.5 C65.8,4 66.2,4.4 66.7,4.4 C67,4.4 67.3,4.3 67.5,4.1 L67.7,4.3 C67.4,4.6 67.1,4.7 66.6,4.7 C65.8,4.7 65.3,4.1 65.3,3.3 C65.3,2.5 65.8,1.9 66.6,1.9 C67.5,2 67.9,2.6 67.9,3.5 Z M67.5,3.2 C67.5,2.7 67.1,2.4 66.6,2.4 C66.1,2.4 65.7,2.7 65.7,3.2 L67.5,3.2 Z" id="Shape"></path>
                <path d="M69,2.6 C69.2,2.2 69.5,2 70,2 L70,2.4 C69.4,2.4 69.1,2.7 69,3.3 L69,4.7 L68.6,4.7 L68.6,2 L69,2 L69,2.6 Z" id="Path"></path>
                <polygon id="Path" points="72.2 1.5 72.2 2.7 74 2.7 74 3.1 72.2 3.1 72.2 4.3 74.3 4.3 74.3 4.7 71.8 4.7 71.8 1.1 74.2 1.1 74.2 1.5"></polygon>
                <path d="M77.5,4.7 L77.1,4.7 L77.1,4.1 C76.9,4.5 76.5,4.7 76.1,4.7 C75.3,4.7 74.8,4.1 74.8,3.3 C74.8,2.5 75.3,1.9 76.1,1.9 C76.6,1.9 76.9,2.1 77.1,2.5 L77.1,0.8 L77.5,0.8 L77.5,4.7 Z M77.1,3.4 C77.1,2.8 76.7,2.4 76.1,2.4 C75.5,2.4 75.1,2.8 75.1,3.4 C75.1,4 75.5,4.4 76.1,4.4 C76.7,4.3 77.1,3.9 77.1,3.4 Z" id="Shape"></path>
                <path d="M80.8,4.7 L80.4,4.7 L80.4,4.1 C80.2,4.5 79.9,4.7 79.4,4.7 C78.8,4.7 78.4,4.3 78.4,3.7 L78.4,2.1 L78.8,2.1 L78.8,3.6 C78.8,4.1 79.1,4.4 79.5,4.4 C80.1,4.4 80.4,4 80.4,3.4 L80.4,2.1 L80.8,2.1 L80.8,4.7 L80.8,4.7 Z" id="Path"></path>
                <path d="M83.9,2.4 L83.7,2.7 C83.5,2.5 83.2,2.4 82.9,2.4 C82.3,2.4 82,2.8 82,3.4 C82,4 82.4,4.4 82.9,4.4 C83.3,4.4 83.5,4.3 83.7,4.1 L83.9,4.3 C83.7,4.6 83.3,4.8 82.8,4.8 C82,4.8 81.5,4.2 81.5,3.4 C81.5,2.6 82.1,2 82.8,2 C83.3,2 83.6,2.1 83.9,2.4 Z" id="Path"></path>
                <path d="M86.1,4.3 C85.9,4.6 85.5,4.7 85.1,4.7 C84.5,4.7 84.2,4.3 84.2,3.9 C84.2,3.4 84.6,3.1 85.2,3.1 L86.1,3.1 L86.1,2.9 C86.1,2.5 85.9,2.3 85.4,2.3 C85.1,2.3 84.8,2.4 84.6,2.6 L84.4,2.3 C84.7,2.1 85,1.9 85.5,1.9 C86.2,1.9 86.5,2.3 86.5,2.8 L86.5,4.6 L86.1,4.6 L86.1,4.3 L86.1,4.3 Z M86.1,3.8 L86.1,3.5 L85.3,3.5 C84.9,3.5 84.6,3.6 84.6,3.9 C84.6,4.2 84.8,4.4 85.2,4.4 C85.7,4.4 86,4.1 86.1,3.8 Z" id="Shape"></path>
                <path d="M88.8,4.5 C88.6,4.6 88.4,4.7 88.2,4.7 C87.8,4.7 87.5,4.5 87.5,3.9 L87.5,2.4 L87.1,2.4 L87.1,2.1 L87.5,2.1 L87.5,1.4 L87.9,1.4 L87.9,2.1 L88.7,2.1 L88.7,2.4 L87.9,2.4 L87.9,3.9 C87.9,4.2 88,4.3 88.3,4.3 C88.4,4.3 88.6,4.3 88.7,4.2 L88.8,4.5 Z" id="Path"></path>
                <path d="M89.8,1.2 C89.8,1.4 89.7,1.5 89.5,1.5 C89.4,1.5 89.2,1.4 89.2,1.2 C89.2,1 89.3,0.9 89.5,0.9 C89.7,1 89.8,1.1 89.8,1.2 Z M89.4,4.7 L89.4,2 L89.8,2 L89.8,4.7 L89.4,4.7 Z" id="Shape"></path>
                <path d="M93.2,3.3 C93.2,4.1 92.6,4.7 91.8,4.7 C91,4.7 90.4,4.1 90.4,3.3 C90.4,2.5 91,2 91.8,2 C92.6,2 93.2,2.5 93.2,3.3 Z M90.9,3.3 C90.9,3.9 91.3,4.3 91.9,4.3 C92.5,4.3 92.9,3.9 92.9,3.3 C92.9,2.7 92.5,2.3 91.9,2.3 C91.3,2.4 90.9,2.8 90.9,3.3 Z" id="Shape"></path>
                <path d="M96.3,3 L96.3,4.6 L95.9,4.6 L95.9,3.1 C95.9,2.6 95.6,2.3 95.1,2.3 C94.6,2.3 94.2,2.6 94.2,3.2 L94.2,4.6 L93.8,4.6 L93.8,1.9 L94.2,1.9 L94.2,2.5 C94.4,2.1 94.7,1.9 95.2,1.9 C96,2 96.3,2.4 96.3,3 Z" id="Path"></path>
            </g>
        </g>
    </g>
</svg>